PathFileType	4	(X/Y/Z)	C:/Users/opensim2020/Desktop/walking_exp_matlab/subject06_walking21_straight_01.trc																																																																																																																																		
DataRate	CameraRate	NumFrames	NumMarkers	Units	OrigDataRate	OrigDataStartFrame	OrigNumFrames																																																																																																																														
100	100	4	44	mm	100	855	155																																																																																																																														
Frame#	Time	LFHD			RFHD			LBHD			RBHD			C7			T10			CLAV			STRN			RBAK			LSHO			LUPA			LELB			LFRM			LWRA			LWRB			LFIN			RSHO			RUPA			RELB			RFRM			RWRA			RWRB			RFIN			LASI			RASI			LPSI			RPSI			LTHI			LKNE			LTIB			LANK			LHEE			LTOE			RTHI			RKNE			RTIB			RANK			RHEE			RTOE			*39			*40			*41			*42			*43		
		X1	Y1	Z1	X2	Y2	Z2	X3	Y3	Z3	X4	Y4	Z4	X5	Y5	Z5	X6	Y6	Z6	X7	Y7	Z7	X8	Y8	Z8	X9	Y9	Z9	X10	Y10	Z10	X11	Y11	Z11	X12	Y12	Z12	X13	Y13	Z13	X14	Y14	Z14	X15	Y15	Z15	X16	Y16	Z16	X17	Y17	Z17	X18	Y18	Z18	X19	Y19	Z19	X20	Y20	Z20	X21	Y21	Z21	X22	Y22	Z22	X23	Y23	Z23	X24	Y24	Z24	X25	Y25	Z25	X26	Y26	Z26	X27	Y27	Z27	X28	Y28	Z28	X29	Y29	Z29	X30	Y30	Z30	X31	Y31	Z31	X32	Y32	Z32	X33	Y33	Z33	X34	Y34	Z34	X35	Y35	Z35	X36	Y36	Z36	X37	Y37	Z37	X38	Y38	Z38	X39	Y39	Z39	X40	Y40	Z40	X41	Y41	Z41	X42	Y42	Z42	X43	Y43	Z43	X44	Y44	Z44
																																																																																																																																					
97	0.96	245.44226	1629.18152	-1048.42212	231.15871	1606.26501	-918.86853	112.9746	1578.97192	-1068.68445	100.15402	1560.55286	-941.34045	102.33253	1415.20374	-1019.87653	63.57638	1085.81348	-1017.33392	212.72002	1336.62354	-1018.18561	249.88853	1162.62109	-1034.77759	24.91848	1242.03589	-950.28845	159.66835	1374.79993	-1179.16321	194.98186	1179.78503	-1257.67212	225.7879	1071.8479	-1272.43518	344.88416	984.88995	-1271.74023	456.87213	960.62506	-1201.79724	434.31818	910.09369	-1245.48975	521.42535	895.3139	-1224.88879	160.87952	1363.08667	-856.68829	80.6282	1177.94336	-776.45563	63.4837	1056.91858	-761.71973	44.74319	938.42065	-740.31329	64.85852	786.4339	-761.16876	9.74813	804.89294	-727.11188	22.15631	721.56122	-720.38629	227.24986	925.16681	-1143.04578	258.32477	935.32111	-922.52222	75.02943	951.3761	-1091.48828	103.59968	953.61658	-924.97278	107.32498	616.5824	-1177.74426	66.40113	456.85886	-1147.63611	-84.21058	245.15906	-1127.30884	-174.65102	100.45995	-1078.55322	-218.53915	103.87206	-1032.72241	-50.02428	34.22044	-1080.60059	294.95886	616.54285	-853.68811	345.40228	505.08517	-887.51129	392.35992	246.4534	-884.09955	443.90729	66.8595	-926.70703	411.46146	34.1715	-969.46649	597.47131	75.34551	-935.37622	140.00842	1664.43665	-997.1922	NaN	NaN	NaN	NaN	NaN	NaN	NaN	NaN	NaN	NaN	NaN	NaN
98	0.97	259.13342	1628.79102	-1047.12537	244.88788	1605.68909	-917.5354	126.65115	1578.57141	-1067.42896	113.82211	1559.95752	-940.09131	116.02116	1414.21802	-1018.70996	80.04727	1084.49988	-1016.76147	227.1131	1336.33704	-1017.12909	265.46365	1162.51831	-1033.87109	39.76776	1240.29382	-949.40613	173.67816	1374.37402	-1177.99512	209.35449	1179.35059	-1256.31335	239.7041	1071.36426	-1270.9491	358.95953	984.87805	-1269.95862	470.90189	961.49268	-1199.81458	448.8349	910.53845	-1243.27271	536.14044	896.86438	-1222.51501	174.97838	1362.44592	-855.63239	95.89671	1176.78052	-775.45831	78.77894	1055.68958	-760.83759	60.35	937.18854	-739.60181	80.52643	785.21179	-760.19666	25.32513	803.65155	-726.35046	37.72145	720.32404	-719.53485	244.03568	924.39905	-1142.60596	274.86688	934.84985	-922.01086	91.15755	951.08368	-1091.31519	119.97422	953.77869	-924.09766	122.33911	615.36786	-1177.09607	81.11684	455.83188	-1146.96948	-75.55616	248.57436	-1127.1886	-170.58366	106.80589	-1078.98486	-214.24808	112.13783	-1033.26526	-49.17082	34.61389	-1080.33386	311.92642	617.67059	-855.19946	361.39816	506.44754	-889.73047	402.71014	245.20343	-886.06903	448.70709	66.1293	-927.20026	414.34808	36.94328	-970.64624	602.87512	60.68473	-935.16974	153.63232	1663.93152	-995.82953	NaN	NaN	NaN	NaN	NaN	NaN	NaN	NaN	NaN	NaN	NaN	NaN
99	0.98	272.76895	1629.78137	-1045.57813	258.6319	1606.03528	-916.151	140.39406	1578.84607	-1066.16589	127.5984	1560.00464	-938.76501	129.88751	1414.13196	-1017.42932	96.32298	1083.91138	-1016.63019	241.46004	1336.88501	-1015.98914	280.61862	1162.97986	-1032.84534	54.60759	1238.90735	-948.52484	187.51646	1374.55151	-1176.95898	223.48891	1179.13171	-1254.8595	253.47351	1071.0614	-1269.44092	372.64017	984.66901	-1268.32056	484.5603	961.70264	-1198.26465	462.9346	910.56427	-1241.80444	550.08704	897.30811	-1220.52637	189.10144	1362.38379	-854.35742	111.08785	1175.97205	-774.6496	94.90844	1054.89307	-759.98004	76.48881	936.23315	-738.87036	96.63451	784.18164	-759.33948	41.30882	802.73633	-725.66376	53.77246	719.53516	-718.67706	260.8909	924.01721	-1142.25	291.35443	935.10168	-921.67456	108.26335	951.05237	-1091.5686	136.23499	955.08008	-923.86444	138.37831	614.17267	-1176.19165	97.14654	454.7973	-1145.8324	-65.64695	252.4417	-1126.87378	-165.22977	113.9864	-1079.74756	-208.62268	121.5331	-1034.29224	-47.94013	35.06608	-1080.05872	328.09116	620.16437	-856.08887	377.12775	508.92615	-890.60608	414.25449	246.28806	-885.42535	452.30072	66.74895	-926.20483	416.63718	38.66434	-969.49915	606.03241	52.44347	-935.94141	167.27356	1664.12866	-994.38293	NaN	NaN	NaN	NaN	NaN	NaN	NaN	NaN	NaN	NaN	NaN	NaN
100	0.99	286.32504	1631.40271	-1044.18616	272.33289	1607.33374	-914.83887	154.07359	1579.96045	-1064.75171	141.42448	1560.94531	-937.47192	144.10262	1415.0592	-1016.06171	112.27011	1084.31067	-1017.07251	255.7552	1338.05237	-1014.79266	295.61487	1164.13232	-1031.93286	69.37315	1238.52405	-947.54437	201.48624	1375.43848	-1176.18896	237.35687	1179.33582	-1253.42273	266.99362	1071.11194	-1267.84399	385.76389	984.23199	-1266.74988	497.89752	961.24072	-1197.08813	475.68793	909.7583	-1239.8772	563.25385	896.63013	-1219.01221	203.36414	1362.93726	-852.92438	126.93328	1175.57947	-773.62097	111.52841	1054.32935	-759.35571	93.1765	935.69464	-738.1781	113.20245	783.61041	-758.65558	57.92574	802.22644	-724.99817	70.52197	719.06879	-717.94342	277.75961	924.13031	-1141.67883	307.71771	936.30603	-921.35168	124.97031	951.58051	-1092.6283	151.80505	957.98651	-924.49561	155.59279	613.40607	-1175.01172	114.98611	453.89142	-1144.5614	-54.36625	257.11157	-1126.50684	-158.29761	122.27413	-1080.38831	-201.09241	132.05933	-1035.19189	-46.36515	35.67448	-1079.72156	343.9194	623.70563	-856.44623	392.35504	512.15155	-890.18964	425.66193	248.94835	-883.95721	455.88837	66.29737	-925.35785	418.56357	40.24813	-968.08557	609.03424	48.22564	-934.87946	180.72745	1665.24194	-992.88397	NaN	NaN	NaN	NaN	NaN	NaN	NaN	NaN	NaN	NaN	NaN	NaN
